<svg width="30" height="30" viewBox="0 0 30 30" fill="none" xmlns="http://www.w3.org/2000/svg">
<path d="M7.91683 9.3335C7.54111 9.3335 7.18077 9.48275 6.91509 9.74843C6.64942 10.0141 6.50016 10.3744 6.50016 10.7502C6.50016 11.1259 6.64942 11.4862 6.91509 11.7519C7.18077 12.0176 7.54111 12.1668 7.91683 12.1668H9.3335C9.70922 12.1668 10.0696 12.0176 10.3352 11.7519C10.6009 11.4862 10.7502 11.1259 10.7502 10.7502C10.7502 10.3744 10.6009 10.0141 10.3352 9.74843C10.0696 9.48275 9.70922 9.3335 9.3335 9.3335H7.91683ZM15.0002 26.3335H5.0835C4.70777 26.3335 4.34744 26.1842 4.08176 25.9186C3.81609 25.6529 3.66683 25.2926 3.66683 24.9168V5.0835C3.66683 4.70777 3.81609 4.34744 4.08176 4.08176C4.34744 3.81609 4.70777 3.66683 5.0835 3.66683H12.1668V7.91683C12.1668 9.044 12.6146 10.125 13.4116 10.922C14.2087 11.7191 15.2897 12.1668 16.4168 12.1668H20.6668V13.5835C20.6668 13.9592 20.8161 14.3196 21.0818 14.5852C21.3474 14.8509 21.7078 15.0002 22.0835 15.0002C22.4592 15.0002 22.8196 14.8509 23.0852 14.5852C23.3509 14.3196 23.5002 13.9592 23.5002 13.5835V10.7502C23.5002 10.7502 23.5002 10.7502 23.5002 10.6652C23.4854 10.535 23.4569 10.4068 23.4152 10.2827V10.1552C23.347 10.0095 23.2562 9.87561 23.146 9.7585L14.646 1.2585C14.5289 1.1483 14.395 1.05744 14.2493 0.989329C14.207 0.983323 14.1641 0.983323 14.1218 0.989329L13.6685 0.833496H5.0835C3.95633 0.833496 2.87532 1.28126 2.07829 2.07829C1.28126 2.87532 0.833496 3.95633 0.833496 5.0835V24.9168C0.833496 26.044 1.28126 27.125 2.07829 27.922C2.87532 28.7191 3.95633 29.1668 5.0835 29.1668H15.0002C15.3759 29.1668 15.7362 29.0176 16.0019 28.7519C16.2676 28.4862 16.4168 28.1259 16.4168 27.7502C16.4168 27.3744 16.2676 27.0141 16.0019 26.7484C15.7362 26.4828 15.3759 26.3335 15.0002 26.3335ZM15.0002 5.66433L18.6693 9.3335H16.4168C16.0411 9.3335 15.6808 9.18424 15.4151 8.91856C15.1494 8.65289 15.0002 8.29255 15.0002 7.91683V5.66433ZM27.5093 19.491C26.429 18.4604 24.9932 17.8854 23.5002 17.8854C22.0071 17.8854 20.5714 18.4604 19.491 19.491C18.6991 20.2837 18.1601 21.2935 17.9419 22.3925C17.7238 23.4916 17.8364 24.6306 18.2654 25.6657C18.6945 26.7008 19.4208 27.5854 20.3526 28.2078C21.2843 28.8302 22.3797 29.1624 23.5002 29.1624C24.6207 29.1624 25.716 28.8302 26.6477 28.2078C27.5795 27.5854 28.3058 26.7008 28.7349 25.6657C29.164 24.6306 29.2765 23.4916 29.0584 22.3925C28.8403 21.2935 28.3012 20.2837 27.5093 19.491ZM20.6668 23.5002C20.6668 22.7487 20.9653 22.028 21.4967 21.4967C22.028 20.9653 22.7487 20.6668 23.5002 20.6668C23.7442 20.67 23.9868 20.7033 24.2227 20.766L20.766 24.2227C20.7033 23.9868 20.67 23.7442 20.6668 23.5002ZM25.4977 25.4977C25.1465 25.8397 24.7125 26.0848 24.2382 26.209C23.764 26.3332 23.2656 26.3321 22.7918 26.206L26.2343 22.7777C26.297 23.0135 26.3303 23.2562 26.3335 23.5002C26.3303 24.2504 26.0297 24.9688 25.4977 25.4977ZM13.5835 23.5002C13.9592 23.5002 14.3196 23.3509 14.5852 23.0852C14.8509 22.8196 15.0002 22.4592 15.0002 22.0835C15.0002 21.7078 14.8509 21.3474 14.5852 21.0818C14.3196 20.8161 13.9592 20.6668 13.5835 20.6668H7.91683C7.54111 20.6668 7.18077 20.8161 6.91509 21.0818C6.64942 21.3474 6.50016 21.7078 6.50016 22.0835C6.50016 22.4592 6.64942 22.8196 6.91509 23.0852C7.18077 23.3509 7.54111 23.5002 7.91683 23.5002H13.5835ZM16.4168 15.0002H7.91683C7.54111 15.0002 7.18077 15.1494 6.91509 15.4151C6.64942 15.6808 6.50016 16.0411 6.50016 16.4168C6.50016 16.7926 6.64942 17.1529 6.91509 17.4186C7.18077 17.6842 7.54111 17.8335 7.91683 17.8335H16.4168C16.7926 17.8335 17.1529 17.6842 17.4186 17.4186C17.6842 17.1529 17.8335 16.7926 17.8335 16.4168C17.8335 16.0411 17.6842 15.6808 17.4186 15.4151C17.1529 15.1494 16.7926 15.0002 16.4168 15.0002Z" fill="white"/>
</svg>
