<svg width="84" height="84" viewBox="0 0 84 84" fill="none" xmlns="http://www.w3.org/2000/svg">
<path opacity="0.3" d="M80 40C80 47.7024 74.0506 61 74.0506 61L84 84L61.0817 74C61.0817 74 47.7368 80 40 80C17.9086 80 0 62.0914 0 40C0 17.9086 17.9086 0 40 0C62.0914 0 80 17.9086 80 40Z" fill="#D5D7EB"/>
<path d="M26.8334 43.1002C27.1464 43.1002 27.4 42.8465 27.4 42.5336V41.4002C27.4001 41.2499 27.3404 41.1058 27.2341 40.9994C27.1278 40.8932 26.9837 40.8335 26.8333 40.8335C26.683 40.8334 26.5389 40.8931 26.4326 40.9994C26.3263 41.1057 26.2666 41.2499 26.2666 41.4002V42.5336C26.2667 42.8465 26.5204 43.1002 26.8334 43.1002Z" fill="#354A87"/>
<path d="M56.3 28.9334H48.7453C48.3412 27.109 47.3065 25.4856 45.8232 24.3491L46.5018 23.6662C46.7224 23.4443 46.7214 23.0856 46.4996 22.8649C46.2777 22.6442 45.9189 22.6452 45.6982 22.8671L44.8614 23.7093C43.8488 23.1437 42.7238 22.8088 41.5667 22.7287V22.1333H42.1334C42.4463 22.1333 42.7 21.8796 42.7 21.5666C42.7 21.2537 42.4463 21 42.1334 21H39.8667C39.5537 21 39.3001 21.2537 39.3001 21.5666C39.3001 21.8796 39.5537 22.1333 39.8667 22.1333H40.4334V22.7287C39.2751 22.809 38.1489 23.1445 37.1356 23.7112L36.3034 22.8685C36.0834 22.6461 35.7249 22.644 35.5023 22.8637C35.2797 23.0834 35.2771 23.442 35.4966 23.6648L36.1741 24.351C34.6923 25.4875 33.6585 27.11 33.2547 28.9333H25.7C24.7615 28.9343 24.001 29.6948 24 30.6333V53.3C24.001 54.2385 24.7615 54.999 25.7 55H56.3C57.2385 54.999 57.999 54.2385 58 53.3V30.6334C57.999 29.6949 57.2385 28.9344 56.3 28.9334ZM35.3334 30.0666H34.2288C34.5089 26.7629 37.1296 24.1422 40.4334 23.862V24.9666C40.4334 25.2796 40.687 25.5333 41 25.5333C41.313 25.5333 41.5666 25.2796 41.5666 24.9666V23.862C44.8704 24.1422 47.4911 26.7629 47.7712 30.0666H46.6666C46.3537 30.0666 46.1 30.3203 46.1 30.6333C46.1 30.9463 46.3537 31.1999 46.6666 31.1999H47.7712C47.4911 34.5036 44.8704 37.1244 41.5666 37.4045V36.3C41.5666 35.987 41.313 35.7334 41 35.7334C40.687 35.7334 40.4334 35.987 40.4334 36.3V37.4046C37.1296 37.1244 34.5089 34.5037 34.2288 31.2H35.3334C35.6463 31.2 35.9 30.9463 35.9 30.6334C35.9 30.3204 35.6463 30.0666 35.3334 30.0666ZM28.5334 53.8666H25.7C25.3872 53.8663 25.1336 53.6128 25.1334 53.3V30.6334C25.1337 30.3205 25.3872 30.067 25.7 30.0667H28.5334V53.8666ZM53.4666 53.8666H29.6666V30.0666H33.0953C33.0819 30.2546 33.0666 30.442 33.0666 30.6333C33.0666 35.0148 36.6185 38.5666 41 38.5666C45.3815 38.5666 48.9334 35.0148 48.9334 30.6333C48.9334 30.442 48.9181 30.2546 48.9047 30.0666H53.4667V53.8666H53.4666ZM56.8666 41.4H56.3C55.987 41.4 55.7334 41.6537 55.7334 41.9666C55.7334 42.2796 55.987 42.5333 56.3 42.5333H56.8666V53.3C56.8663 53.6128 56.6128 53.8664 56.3 53.8666H54.6V30.0666H56.3C56.6128 30.067 56.8664 30.3204 56.8666 30.6333V41.4Z" fill="#354A87"/>
<path d="M39.077 35.1207C39.215 35.1803 39.3711 35.1824 39.5107 35.1265C39.6502 35.0707 39.7618 34.9616 39.8207 34.8232L41.4781 30.9567L44.8006 27.634C44.9459 27.4913 45.0034 27.2816 44.9513 27.0847C44.8992 26.8878 44.7454 26.7341 44.5486 26.682C44.3517 26.6298 44.142 26.6874 43.9993 26.8327L40.5993 30.2327C40.5483 30.2836 40.5076 30.3438 40.4793 30.4101L38.7793 34.3767C38.72 34.5149 38.7181 34.6709 38.7739 34.8104C38.8297 34.95 38.9388 35.0616 39.077 35.1207Z" fill="#354A87"/>
<path d="M37.5999 45.3666V41.9666C37.5989 41.0281 36.8384 40.2676 35.8999 40.2666H32.4999C31.5615 40.2676 30.8009 41.0281 30.7999 41.9666V45.3666C30.8009 46.3051 31.5615 47.0656 32.4999 47.0666H35.8999C36.8384 47.0656 37.5989 46.3051 37.5999 45.3666ZM36.4666 45.3666C36.4662 45.6794 36.2128 45.933 35.8999 45.9332H32.4999C32.1871 45.9329 31.9335 45.6794 31.9333 45.3666V41.9666C31.9336 41.6538 32.1871 41.4002 32.4999 41.4H35.8999C36.2128 41.4003 36.4663 41.6538 36.4666 41.9666V45.3666Z" fill="#354A87"/>
<path d="M39.8666 47.0666H43.2666C44.2051 47.0656 44.9656 46.3051 44.9666 45.3666V41.9666C44.9656 41.0281 44.2051 40.2676 43.2666 40.2666H39.8666C38.9282 40.2676 38.1676 41.0281 38.1666 41.9666V45.3666C38.1677 46.3051 38.9282 47.0656 39.8666 47.0666ZM39.3 41.9666C39.3003 41.6538 39.5538 41.4002 39.8666 41.4H43.2666C43.5795 41.4003 43.833 41.6538 43.8333 41.9666V45.3666C43.8329 45.6794 43.5795 45.933 43.2666 45.9332H39.8666C39.5538 45.9329 39.3002 45.6794 39.3 45.3666V41.9666Z" fill="#354A87"/>
<path d="M45.5333 41.9666V45.3666C45.5343 46.3051 46.2949 47.0656 47.2333 47.0666H50.6333C51.5718 47.0656 52.3323 46.3051 52.3333 45.3666V41.9666C52.3323 41.0281 51.5718 40.2676 50.6333 40.2666H47.2333C46.2949 40.2677 45.5343 41.0281 45.5333 41.9666ZM51.2 41.9666V45.3666C51.1996 45.6794 50.9462 45.933 50.6333 45.9332H47.2333C46.9205 45.9329 46.6669 45.6794 46.6667 45.3666V41.9666C46.667 41.6538 46.9205 41.4002 47.2333 41.4H50.6333C50.9462 41.4003 51.1996 41.6538 51.2 41.9666Z" fill="#354A87"/>
<path d="M44.4 48.1997H38.7333C37.4815 48.1997 36.4667 49.2145 36.4667 50.4664C36.4667 51.7182 37.4815 52.733 38.7333 52.733H44.4C45.6518 52.733 46.6666 51.7182 46.6666 50.4664C46.6666 49.2145 45.6518 48.1997 44.4 48.1997ZM44.4 51.5997H38.7333C38.1074 51.5997 37.6 51.0923 37.6 50.4664C37.6 49.8404 38.1074 49.333 38.7333 49.333H44.4C45.0259 49.333 45.5333 49.8404 45.5333 50.4664C45.5333 51.0923 45.0259 51.5997 44.4 51.5997Z" fill="#354A87"/>
</svg>
