<svg width="30" height="30" viewBox="0 0 30 30" fill="none" xmlns="http://www.w3.org/2000/svg">
<path d="M19.2502 13.5835H16.4168V7.91683C16.4168 7.54111 16.2676 7.18077 16.0019 6.91509C15.7362 6.64942 15.3759 6.50016 15.0002 6.50016C14.6244 6.50016 14.2641 6.64942 13.9984 6.91509C13.7328 7.18077 13.5835 7.54111 13.5835 7.91683V15.0002C13.5835 15.3759 13.7328 15.7362 13.9984 16.0019C14.2641 16.2676 14.6244 16.4168 15.0002 16.4168H19.2502C19.6259 16.4168 19.9862 16.2676 20.2519 16.0019C20.5176 15.7362 20.6668 15.3759 20.6668 15.0002C20.6668 14.6244 20.5176 14.2641 20.2519 13.9984C19.9862 13.7328 19.6259 13.5835 19.2502 13.5835ZM15.0002 0.833496C12.1983 0.833496 9.45929 1.66436 7.12959 3.22101C4.79989 4.77766 2.98412 6.99019 1.91188 9.57881C0.839634 12.1674 0.559087 15.0159 1.10571 17.7639C1.65234 20.512 3.00158 23.0363 4.98282 25.0175C6.96407 26.9988 9.48833 28.348 12.2364 28.8946C14.9845 29.4412 17.8329 29.1607 20.4215 28.0885C23.0101 27.0162 25.2227 25.2004 26.7793 22.8707C28.336 20.541 29.1668 17.8021 29.1668 15.0002C29.1668 13.1398 28.8004 11.2976 28.0885 9.57881C27.3765 7.86003 26.333 6.29831 25.0175 4.98282C23.702 3.66732 22.1403 2.62381 20.4215 1.91187C18.7027 1.19993 16.8606 0.833496 15.0002 0.833496ZM15.0002 26.3335C12.7586 26.3335 10.5675 25.6688 8.70371 24.4235C6.83995 23.1782 5.38733 21.4081 4.52954 19.3372C3.67174 17.2663 3.4473 14.9876 3.8846 12.7891C4.3219 10.5907 5.4013 8.57128 6.98629 6.98629C8.57129 5.40129 10.5907 4.3219 12.7891 3.8846C14.9876 3.4473 17.2664 3.67174 19.3372 4.52953C21.4081 5.38732 23.1782 6.83994 24.4235 8.7037C25.6688 10.5675 26.3335 12.7586 26.3335 15.0002C26.3335 18.0059 25.1395 20.8886 23.014 23.014C20.8886 25.1395 18.006 26.3335 15.0002 26.3335Z" fill="white"/>
</svg>
