<svg width="60" height="60" viewBox="0 0 60 60" fill="none" xmlns="http://www.w3.org/2000/svg">
<g clip-path="url(#clip0)">
<path d="M45.5051 11.25H45.3216C44.9703 11.25 44.6715 11.4936 44.5862 11.8344C43.9888 14.2241 41.8231 16 39.2501 16H20.7501C18.1771 16 16.0113 14.2241 15.414 11.8344C15.3288 11.4936 15.0298 11.25 14.6786 11.25H14.4951C13.9428 11.25 13.4951 11.6977 13.4951 12.25V51.625C13.4951 52.1772 13.9428 52.625 14.4951 52.625H36.6301C36.9062 52.625 37.1301 52.4011 37.1301 52.125V46.25C37.1301 44.5931 38.4732 43.25 40.1301 43.25H46.0051C46.2812 43.25 46.5051 43.0261 46.5051 42.75V12.25C46.5051 11.6977 46.0573 11.25 45.5051 11.25ZM21.7501 24.5C21.7501 22.8463 23.0963 21.5 24.7501 21.5H26.1251V20.125C26.1251 18.4713 27.4713 17.125 29.1251 17.125H30.8751C32.5288 17.125 33.8751 18.4713 33.8751 20.125V21.5H35.2501C36.9038 21.5 38.2501 22.8463 38.2501 24.5V26.25C38.2501 27.9037 36.9038 29.25 35.2501 29.25H33.8751V30.625C33.8751 32.2787 32.5288 33.625 30.8751 33.625H29.1251C27.4713 33.625 26.1251 32.2787 26.1251 30.625V29.25H24.7501C23.0963 29.25 21.7501 27.9037 21.7501 26.25V24.5ZM32.5888 46.5H19.5001C18.9476 46.5 18.5001 46.0525 18.5001 45.5C18.5001 44.9475 18.9476 44.5 19.5001 44.5H32.5888C33.1413 44.5 33.5888 44.9475 33.5888 45.5C33.5888 46.0525 33.1413 46.5 32.5888 46.5ZM40.5001 39H19.5001C18.9476 39 18.5001 38.5525 18.5001 38C18.5001 37.4475 18.9476 37 19.5001 37H40.5001C41.0526 37 41.5001 37.4475 41.5001 38C41.5001 38.5525 41.0526 39 40.5001 39Z" fill="white"/>
<path d="M54 8.87476V54.9998C54 57.7611 51.7614 59.9998 49 59.9998H11C8.23866 59.9998 6.00003 57.7611 6.00003 54.9998V8.87476C6.00003 6.11338 8.23866 3.87476 11 3.87476H14.3343C14.9554 3.87476 15.4413 4.43126 15.3335 5.04301C15.2858 5.31401 15.2579 5.59176 15.2513 5.87476C15.2492 5.94563 15.25 8.50763 15.25 8.49476C15.25 8.91176 14.912 9.24976 14.495 9.24976C12.8382 9.24976 11.495 10.5929 11.495 12.2498V51.6248C11.495 53.2816 12.8382 54.6248 14.495 54.6248C39.7912 54.6248 38.206 54.648 38.4175 54.5823C38.5725 54.536 38.7175 54.4523 38.8375 54.3323L48.2125 44.9573C48.3575 44.8123 48.4459 44.6353 48.4888 44.4348C48.5142 44.3161 48.505 46.5695 48.505 12.2498C48.505 10.5929 47.1619 9.24976 45.505 9.24976C45.088 9.24976 44.75 8.91176 44.75 8.49476C44.75 5.91388 44.7769 5.66851 44.6665 5.04301C44.5588 4.43126 45.0447 3.87476 45.6658 3.87476H49C51.7614 3.87476 54 6.11338 54 8.87476Z" fill="white"/>
<path d="M44.236 46.1036L39.9835 50.3544C39.6685 50.6692 39.13 50.4461 39.13 50.0007V46.25C39.13 45.6977 39.5778 45.25 40.13 45.25H43.8825C44.328 45.25 44.5512 45.7886 44.236 46.1036Z" fill="white"/>
<path d="M36.25 24.4998V26.2497C36.25 26.801 35.8013 27.2497 35.25 27.2497H32.875C32.3225 27.2497 31.875 27.6972 31.875 28.2497V30.6247C31.875 31.176 31.4263 31.6247 30.875 31.6247H29.125C28.5738 31.6247 28.125 31.176 28.125 30.6247V28.2497C28.125 27.6972 27.6775 27.2497 27.125 27.2497H24.75C24.1988 27.2497 23.75 26.801 23.75 26.2497V24.4998C23.75 23.9485 24.1988 23.4998 24.75 23.4998H27.125C27.6775 23.4998 28.125 23.0523 28.125 22.4998V20.1248C28.125 19.5735 28.5738 19.1248 29.125 19.1248H30.875C31.4263 19.1248 31.875 19.5735 31.875 20.1248V22.4998C31.875 23.0523 32.3225 23.4998 32.875 23.4998H35.25C35.8013 23.4998 36.25 23.9485 36.25 24.4998Z" fill="white"/>
<path d="M42.75 6V10.5C42.75 12.43 41.18 14 39.25 14H20.75C18.82 14 17.25 12.43 17.25 10.5V6C17.25 4.07 18.82 2.5 20.75 2.5H25.895C26.3275 1.05625 27.6675 0 29.25 0H30.75C32.3325 0 33.6725 1.05625 34.105 2.5H39.25C41.18 2.5 42.75 4.07 42.75 6Z" fill="white"/>
</g>
<defs>
<clipPath id="clip0">
<rect width="60" height="60" fill="white"/>
</clipPath>
</defs>
</svg>
