<svg width="18" height="30" viewBox="0 0 18 30" fill="none" xmlns="http://www.w3.org/2000/svg">
<path d="M11.8333 13.5835H6.16667C5.41522 13.5835 4.69455 13.285 4.1632 12.7536C3.63184 12.2223 3.33333 11.5016 3.33333 10.7502C3.33333 9.99872 3.63184 9.27805 4.1632 8.74669C4.69455 8.21534 5.41522 7.91683 6.16667 7.91683H13.25C13.6257 7.91683 13.9861 8.06609 14.2517 8.33176C14.5174 8.59744 14.6667 8.95777 14.6667 9.3335C14.6667 9.70922 14.8159 10.0696 15.0816 10.3352C15.3473 10.6009 15.7076 10.7502 16.0833 10.7502C16.4591 10.7502 16.8194 10.6009 17.0851 10.3352C17.3507 10.0696 17.5 9.70922 17.5 9.3335C17.5 8.20633 17.0522 7.12532 16.2552 6.32829C15.4582 5.53126 14.3772 5.0835 13.25 5.0835H10.4167V2.25016C10.4167 1.87444 10.2674 1.5141 10.0017 1.24843C9.73606 0.982752 9.37572 0.833496 9 0.833496C8.62428 0.833496 8.26394 0.982752 7.99827 1.24843C7.73259 1.5141 7.58333 1.87444 7.58333 2.25016V5.0835H6.16667C4.66377 5.0835 3.22243 5.68052 2.15973 6.74322C1.09702 7.80593 0.5 9.24727 0.5 10.7502C0.5 12.2531 1.09702 13.6944 2.15973 14.7571C3.22243 15.8198 4.66377 16.4168 6.16667 16.4168H11.8333C12.5848 16.4168 13.3054 16.7153 13.8368 17.2467C14.3682 17.778 14.6667 18.4987 14.6667 19.2502C14.6667 20.0016 14.3682 20.7223 13.8368 21.2536C13.3054 21.785 12.5848 22.0835 11.8333 22.0835H4.75C4.37428 22.0835 4.01394 21.9342 3.74827 21.6686C3.48259 21.4029 3.33333 21.0426 3.33333 20.6668C3.33333 20.2911 3.18408 19.9308 2.9184 19.6651C2.65272 19.3994 2.29239 19.2502 1.91667 19.2502C1.54094 19.2502 1.18061 19.3994 0.914932 19.6651C0.649256 19.9308 0.5 20.2911 0.5 20.6668C0.5 21.794 0.947767 22.875 1.7448 23.672C2.54183 24.4691 3.62283 24.9168 4.75 24.9168H7.58333V27.7502C7.58333 28.1259 7.73259 28.4862 7.99827 28.7519C8.26394 29.0176 8.62428 29.1668 9 29.1668C9.37572 29.1668 9.73606 29.0176 10.0017 28.7519C10.2674 28.4862 10.4167 28.1259 10.4167 27.7502V24.9168H11.8333C13.3362 24.9168 14.7776 24.3198 15.8403 23.2571C16.903 22.1944 17.5 20.7531 17.5 19.2502C17.5 17.7473 16.903 16.3059 15.8403 15.2432C14.7776 14.1805 13.3362 13.5835 11.8333 13.5835Z" fill="white"/>
</svg>
