<svg width="16" height="16" viewBox="0 0 16 16" fill="none" xmlns="http://www.w3.org/2000/svg">
<path d="M12.2378 6.34253C12.1293 6.34253 12.057 6.34253 11.9486 6.34253C11.587 6.37836 11.1893 6.45003 10.8638 6.6292C11.6593 7.41756 13.3949 9.35261 13.5033 9.46011C13.9734 9.92596 14.1542 10.571 13.7203 11.0727C13.3949 11.4668 12.7802 11.646 12.3101 11.4668C12.057 11.3593 11.8401 11.1443 11.6231 10.9652C11.0446 10.3918 10.5023 9.81845 9.92374 9.28094C10.5023 9.89012 10.4661 10.8576 9.88759 11.431C9.27291 12.0402 8.29666 12.0402 7.68199 11.431L7.28425 11.0368L7.17578 11.0727C8.04356 11.8968 8.91134 12.721 9.77912 13.5094C10.1768 13.8677 10.5746 14.2619 10.9362 14.6202C11.2616 14.9428 11.6231 15.3728 12.057 15.5878C12.8163 15.982 13.5395 14.9428 14.0095 14.4411C14.3711 14.0469 14.6965 13.6527 15.0219 13.2585C15.3112 12.8285 15.6366 12.4702 15.7812 11.9685C16.1428 10.7501 16.0705 9.63928 15.4558 8.52842C14.9496 7.59673 14.1542 6.80838 13.1418 6.48587C12.8525 6.37836 12.5632 6.34253 12.2378 6.34253Z" fill="#DC593A"/>
<path d="M6.95869 2.36506C6.95869 3.6551 5.91013 4.73012 4.5723 4.73012C3.27064 4.73012 2.18591 3.69093 2.18591 2.36506C2.18591 1.07503 3.23448 0 4.5723 0C5.91013 0 6.95869 1.03919 6.95869 2.36506Z" fill="#354A87"/>
<path d="M12.1659 4.30003C13.2442 4.30003 14.1184 3.43368 14.1184 2.36498C14.1184 1.29628 13.2442 0.429932 12.1659 0.429932C11.0875 0.429932 10.2134 1.29628 10.2134 2.36498C10.2134 3.43368 11.0875 4.30003 12.1659 4.30003Z" fill="#DC593A"/>
<path d="M9.9599 9.28116C9.27291 8.6003 8.58592 7.91945 7.86277 7.20277C7.46504 6.80859 7.10346 6.34274 6.63342 5.9844C6.16337 5.62606 5.58485 5.55439 5.00633 5.51856C3.81314 5.48272 2.61995 5.84107 1.67985 6.59358C1.6437 6.62942 1.57138 6.66525 1.53522 6.70109C0.667445 7.45361 0.125084 8.52864 0.0166118 9.67533C-0.0918604 10.822 0.342029 11.7537 0.992862 12.6496C1.82448 13.7963 2.87305 14.7996 3.95777 15.7313C4.39166 16.0897 5.04249 16.0897 5.47638 15.7313C5.72948 15.5163 6.01874 15.2655 6.308 14.9788C6.66957 14.6563 6.66958 14.1188 6.34416 13.7604L3.66851 11.1087C3.19846 10.6429 3.12615 9.89034 3.56004 9.38866C4.03008 8.81531 4.93402 8.77948 5.44022 9.28116L5.8018 9.6395L7.53735 11.4312C8.15203 12.0404 9.30906 12.0404 9.92374 11.4312C10.5746 10.8579 10.5746 9.89034 9.9599 9.28116Z" fill="#354A87"/>
</svg>
