<svg width="80" height="80" viewBox="0 0 80 80" fill="none" xmlns="http://www.w3.org/2000/svg">
<rect width="80" height="80" rx="6" fill="#68C3D9"/>
<path d="M35.0418 47.0835C35.4176 47.0835 35.7779 46.9342 36.0436 46.6686C36.3092 46.4029 36.4585 46.0426 36.4585 45.6668C36.4654 45.5725 36.4654 45.4778 36.4585 45.3835C36.443 45.2947 36.4143 45.2088 36.3735 45.1285C36.3425 45.0382 36.2996 44.9525 36.246 44.8735L36.076 44.661C35.9413 44.532 35.7824 44.4309 35.6085 44.3635C35.3437 44.2388 35.0467 44.1992 34.7585 44.2502L34.5035 44.3352L34.2485 44.4627C34.1743 44.515 34.1033 44.5717 34.036 44.6327L33.866 44.8452C33.8124 44.9241 33.7695 45.0099 33.7385 45.1002C33.6976 45.1805 33.669 45.2664 33.6535 45.3552C33.6465 45.4495 33.6465 45.5442 33.6535 45.6385C33.6535 46.0142 33.8028 46.3746 34.0684 46.6402C34.3341 46.9059 34.6944 47.0552 35.0702 47.0552L35.0418 47.0835ZM46.3752 47.0835C46.7509 47.0835 47.1112 46.9342 47.3769 46.6686C47.6426 46.4029 47.7918 46.0426 47.7918 45.6668C47.7988 45.5725 47.7988 45.4778 47.7918 45.3835C47.7763 45.2947 47.7477 45.2088 47.7068 45.1285C47.6758 45.0382 47.6329 44.9525 47.5793 44.8735L47.4093 44.661C47.2716 44.5359 47.1135 44.4352 46.9418 44.3635C46.5969 44.2218 46.2101 44.2218 45.8652 44.3635C45.6935 44.4352 45.5354 44.5359 45.3977 44.661L45.2277 44.8735C45.174 44.9525 45.1312 45.0382 45.1002 45.1285C45.0593 45.2088 45.0307 45.2947 45.0152 45.3835C45.0082 45.4778 45.0082 45.5725 45.0152 45.6668C45.0167 46.0385 45.1643 46.3946 45.426 46.6585C45.6771 46.9154 46.0163 47.0673 46.3752 47.0835ZM42.1252 30.0835H39.2918C38.9161 30.0835 38.5558 30.2328 38.2901 30.4984C38.0244 30.7641 37.8752 31.1244 37.8752 31.5002C37.8752 31.8759 38.0244 32.2362 38.2901 32.5019C38.5558 32.7676 38.9161 32.9168 39.2918 32.9168H42.1252C42.5009 32.9168 42.8612 32.7676 43.1269 32.5019C43.3926 32.2362 43.5418 31.8759 43.5418 31.5002C43.5418 31.1244 43.3926 30.7641 43.1269 30.4984C42.8612 30.2328 42.5009 30.0835 42.1252 30.0835ZM49.2085 25.8335H32.2085C31.0813 25.8335 30.0003 26.2813 29.2033 27.0783C28.4063 27.8753 27.9585 28.9563 27.9585 30.0835V47.0835C27.961 47.9603 28.2346 48.8149 28.7418 49.5302C29.2491 50.2454 29.9651 50.7862 30.7918 51.0785V52.7502C30.7918 53.1259 30.9411 53.4862 31.2068 53.7519C31.4724 54.0176 31.8328 54.1668 32.2085 54.1668C32.5842 54.1668 32.9446 54.0176 33.2102 53.7519C33.4759 53.4862 33.6252 53.1259 33.6252 52.7502V51.3335H47.7918V52.7502C47.7918 53.1259 47.9411 53.4862 48.2068 53.7519C48.4724 54.0176 48.8328 54.1668 49.2085 54.1668C49.5842 54.1668 49.9446 54.0176 50.2102 53.7519C50.4759 53.4862 50.6252 53.1259 50.6252 52.7502V51.0785C51.4519 50.7862 52.1679 50.2454 52.6752 49.5302C53.1824 48.8149 53.456 47.9603 53.4585 47.0835V30.0835C53.4585 28.9563 53.0107 27.8753 52.2137 27.0783C51.4167 26.2813 50.3357 25.8335 49.2085 25.8335ZM50.6252 47.0835C50.6252 47.4592 50.4759 47.8196 50.2102 48.0852C49.9446 48.3509 49.5842 48.5002 49.2085 48.5002H32.2085C31.8328 48.5002 31.4724 48.3509 31.2068 48.0852C30.9411 47.8196 30.7918 47.4592 30.7918 47.0835V42.8335H50.6252V47.0835ZM50.6252 40.0002H30.7918V30.0835C30.7918 29.7078 30.9411 29.3474 31.2068 29.0818C31.4724 28.8161 31.8328 28.6668 32.2085 28.6668H49.2085C49.5842 28.6668 49.9446 28.8161 50.2102 29.0818C50.4759 29.3474 50.6252 29.7078 50.6252 30.0835V40.0002Z" fill="white"/>
</svg>
