<svg width="26" height="30" viewBox="0 0 26 30" fill="none" xmlns="http://www.w3.org/2000/svg">
<path d="M21.4998 4.3465C19.2455 2.09216 16.1879 0.825684 12.9998 0.825684C9.8117 0.825684 6.75416 2.09216 4.49982 4.3465C2.24548 6.60084 0.979004 9.65838 0.979004 12.8465C0.979004 16.0346 2.24548 19.0922 4.49982 21.3465L11.9657 28.8265C12.0974 28.9593 12.254 29.0647 12.4267 29.1366C12.5993 29.2085 12.7845 29.2455 12.9715 29.2455C13.1585 29.2455 13.3437 29.2085 13.5163 29.1366C13.6889 29.0647 13.8456 28.9593 13.9773 28.8265L21.4998 21.2757C23.7447 19.0307 25.0059 15.9859 25.0059 12.8111C25.0059 9.63626 23.7447 6.59146 21.4998 4.3465ZM19.474 19.2498L12.9998 25.7523L6.52565 19.2498C5.24661 17.9696 4.37583 16.3389 4.02339 14.5639C3.67095 12.7889 3.85267 10.9492 4.54558 9.27746C5.2385 7.6057 6.41149 6.1769 7.9163 5.17168C9.4211 4.16645 11.1901 3.62992 12.9998 3.62992C14.8095 3.62992 16.5785 4.16645 18.0833 5.17168C19.5881 6.1769 20.7611 7.6057 21.4541 9.27746C22.147 10.9492 22.3287 12.7889 21.9763 14.5639C21.6238 16.3389 20.753 17.9696 19.474 19.2498ZM8.74982 8.49733C7.60616 9.64451 6.96396 11.1983 6.96396 12.8182C6.96396 14.438 7.60616 15.9918 8.74982 17.139C9.59948 17.9901 10.6816 18.5714 11.8603 18.8098C13.0391 19.0483 14.262 18.9333 15.3757 18.4794C16.4893 18.0254 17.4442 17.2527 18.1203 16.2582C18.7965 15.2636 19.1639 14.0916 19.1765 12.889C19.1829 12.086 19.0282 11.2899 18.7216 10.5478C18.415 9.80565 17.9627 9.1325 17.3915 8.56817C16.83 7.99382 16.1605 7.53618 15.4215 7.22158C14.6825 6.90697 13.8886 6.74162 13.0854 6.73504C12.2822 6.72846 11.4857 6.88077 10.7416 7.18322C9.99754 7.48566 9.32062 7.93227 8.74982 8.49733ZM15.394 15.1273C14.8571 15.6724 14.1476 16.014 13.3867 16.0939C12.6259 16.1737 11.8609 15.9867 11.2226 15.565C10.5843 15.1432 10.1124 14.5128 9.88741 13.7816C9.66246 13.0504 9.69849 12.2637 9.98934 11.5561C10.2802 10.8485 10.8078 10.2639 11.482 9.90229C12.1562 9.54065 12.935 9.42441 13.6854 9.57346C14.4358 9.7225 15.1111 10.1276 15.5959 10.7194C16.0807 11.3113 16.3448 12.0531 16.3432 12.8182C16.3225 13.6926 15.9557 14.5232 15.3232 15.1273H15.394Z" fill="white"/>
</svg>
