<svg width="84" height="84" viewBox="0 0 84 84" fill="none" xmlns="http://www.w3.org/2000/svg">
<path opacity="0.3" d="M80 40C80 47.7024 74.0506 61 74.0506 61L84 84L61.0817 74C61.0817 74 47.7368 80 40 80C17.9086 80 0 62.0914 0 40C0 17.9086 17.9086 0 40 0C62.0914 0 80 17.9086 80 40Z" fill="#D5D7EB"/>
<path d="M41.0623 27.2676H40.9915V27.1968C40.9915 26.6466 40.5456 26.2007 39.9954 26.2007C39.4452 26.2007 38.9993 26.6466 38.9993 27.1968V27.2676H38.9285C38.3785 27.2676 37.9324 27.7135 37.9324 28.2637C37.9324 28.8139 38.3785 29.2598 38.9285 29.2598H38.9993V29.3306C38.9993 29.8808 39.4452 30.3267 39.9954 30.3267C40.5456 30.3267 40.9915 29.8808 40.9915 29.3306V29.2598H41.0623C41.6125 29.2598 42.0584 28.8139 42.0584 28.2637C42.0584 27.7135 41.6125 27.2676 41.0623 27.2676Z" fill="#354A87"/>
<path d="M55.89 55.73L54.5777 51.1381C53.9743 49.0255 52.4768 47.3024 50.4696 46.4103L44.1921 43.6202V41.8205C46.1244 40.4846 47.3931 38.2537 47.3931 35.7321V23.9961C47.3931 23.4459 46.9469 23 46.397 23H33.5936C33.0436 23 32.5975 23.4459 32.5975 23.9961V35.7321C32.5975 38.2537 33.8662 40.4846 35.7985 41.8205V43.6202L29.5213 46.4103C27.5138 47.3024 26.0163 49.0255 25.4129 51.1378L24.1006 55.73C23.9252 56.3432 24.3743 57 25.0588 57C25.4923 57 25.891 56.7149 26.016 56.2773L27.3286 51.6852C27.7693 50.1417 28.8634 48.8826 30.3303 48.2307L32.8813 47.0966C32.8841 47.0995 32.8864 47.1029 32.8893 47.1057L39.291 53.5072C39.4856 53.7017 39.7403 53.799 39.9953 53.799C40.2503 53.799 40.505 53.7017 40.6996 53.5072L47.101 47.1057C47.1039 47.1029 47.1065 47.0998 47.1091 47.0966L49.6603 48.2307C51.1272 48.8826 52.2213 50.1415 52.662 51.6852L53.9743 56.2773C54.0996 56.7147 54.4983 57 54.9318 57C55.6474 57 56.0573 56.3149 55.89 55.73ZM34.5897 24.9922H45.4009V31.5353H34.5897V24.9922ZM34.5897 35.7321V33.5275H45.4009V35.7321C45.4009 38.7126 42.9758 41.1375 39.9953 41.1375C37.0148 41.1375 34.5897 38.7126 34.5897 35.7321ZM39.9953 51.3941L34.8312 46.2303L37.1992 45.1776C37.5588 45.0178 37.7907 44.6611 37.7907 44.2674V42.7943C38.4871 43.0121 39.2277 43.1297 39.9953 43.1297C40.7629 43.1297 41.5034 43.0121 42.1999 42.7943V44.2674C42.1999 44.6611 42.4318 45.0178 42.7916 45.1776L45.1594 46.2303L39.9953 51.3941Z" fill="#354A87"/>
<path d="M49.5974 52.8735H46.397C45.8468 52.8735 45.4009 53.3194 45.4009 53.8696C45.4009 54.4198 45.8468 54.8657 46.397 54.8657H49.5974C50.1476 54.8657 50.5935 54.4198 50.5935 53.8696C50.5935 53.3194 50.1476 52.8735 49.5974 52.8735Z" fill="#354A87"/>
</svg>
