<svg xmlns="http://www.w3.org/2000/svg" width="323" height="100" viewBox="0 0 323 100"><g><g><g><path fill="#ef3046" d="M135.238 39.065c-2.434-.811-4.347-1.863-5.738-3.155l1.838-3.875c1.324 1.192 3.022 2.16 5.093 2.906a18.687 18.687 0 0 0 6.384 1.117c2.882 0 5.034-.487 6.46-1.465 1.423-.977 2.135-2.278 2.135-3.9 0-1.192-.389-2.161-1.167-2.906-.779-.745-1.739-1.317-2.882-1.715-1.143-.397-2.757-.844-4.844-1.341-2.617-.63-4.729-1.258-6.335-1.888a10.471 10.471 0 0 1-4.124-2.906c-1.142-1.31-1.714-3.072-1.714-5.292 0-1.854.49-3.527 1.466-5.018.977-1.491 2.46-2.683 4.447-3.577 1.987-.895 4.454-1.342 7.403-1.342 2.053 0 4.074.266 6.061.795 1.988.53 3.693 1.292 5.118 2.286l-1.64 3.974a18 18 0 0 0-4.67-2.111c-1.657-.48-3.279-.721-4.869-.721-2.816 0-4.927.514-6.335 1.54-1.408 1.028-2.11 2.353-2.11 3.975 0 1.193.396 2.16 1.191 2.907.795.745 1.78 1.325 2.956 1.739 1.175.414 2.774.853 4.794 1.316 2.617.63 4.721 1.26 6.311 1.888 1.59.63 2.956 1.59 4.1 2.882 1.141 1.292 1.713 3.03 1.713 5.217a8.877 8.877 0 0 1-1.49 4.993c-.994 1.508-2.502 2.7-4.522 3.578-2.02.878-4.505 1.316-7.453 1.316a23.79 23.79 0 0 1-7.577-1.217z"/></g><g><path fill="#3c4b94" d="M170.142 9.428h-11.924V5.105h28.767v4.323H175.06v30.457h-4.92z"/></g><g><path fill="#3c4b94" d="M192.599 5.104h14.657c3.677 0 6.938.73 9.788 2.186 2.848 1.46 5.059 3.503 6.633 6.137 1.572 2.633 2.359 5.656 2.359 9.067 0 3.412-.787 6.434-2.359 9.067-1.574 2.634-3.785 4.68-6.633 6.137-2.85 1.458-6.111 2.186-9.788 2.186h-14.657zm14.359 30.457c2.814 0 5.291-.545 7.428-1.638 2.135-1.094 3.783-2.626 4.943-4.597 1.159-1.97 1.739-4.248 1.739-6.832 0-2.583-.58-4.86-1.739-6.83-1.16-1.972-2.808-3.504-4.943-4.597-2.137-1.093-4.614-1.64-7.428-1.64h-9.391v26.134z"/></g><g><path fill="#3c4b94" d="M138.816 97.593c-2.8-1.54-4.994-3.66-6.583-6.36-1.59-2.7-2.385-5.738-2.385-9.117 0-3.378.795-6.417 2.385-9.117 1.589-2.7 3.792-4.82 6.608-6.36 2.815-1.54 5.962-2.31 9.44-2.31 2.715 0 5.2.456 7.452 1.367 2.252.912 4.174 2.26 5.764 4.049l-3.23 3.13c-2.617-2.75-5.88-4.124-9.787-4.124-2.584 0-4.92.58-7.006 1.739-2.087 1.16-3.72 2.758-4.894 4.794-1.176 2.038-1.764 4.316-1.764 6.832 0 2.518.588 4.795 1.764 6.832 1.175 2.038 2.807 3.635 4.894 4.794 2.087 1.16 4.422 1.74 7.006 1.74 3.875 0 7.137-1.392 9.787-4.174l3.23 3.13c-1.59 1.789-3.52 3.147-5.788 4.074-2.27.928-4.762 1.392-7.478 1.392-3.478 0-6.617-.771-9.415-2.311z"/></g><g><path fill="#3c4b94" d="M191.705 95.184v4.322h-25.24v-34.78h24.544v4.323h-19.575v10.683h17.44v4.223h-17.44v11.229z"/></g><g><path fill="#3c4b94" d="M227.527 64.727v34.779h-4.074L202.586 73.57v25.935h-4.969v-34.78h4.074l20.867 25.937V64.727z"/></g><g><path fill="#3c4b94" d="M242.73 69.049h-11.923v-4.322h28.767v4.322H247.65v30.457h-4.92z"/></g><g><path fill="#3c4b94" d="M288.092 95.184v4.322h-25.24v-34.78h24.544v4.323H267.82v10.683h17.439v4.223h-17.44v11.229z"/></g><g><path fill="#3c4b94" d="M317.256 99.506l-7.502-10.683c-.928.068-1.656.1-2.187.1h-8.594v10.583h-4.969v-34.78h13.563c4.505 0 8.05 1.078 10.633 3.23 2.584 2.153 3.876 5.117 3.876 8.894 0 2.682-.663 4.968-1.988 6.856s-3.213 3.263-5.664 4.124l8.248 11.676zm-.149-22.656c0-2.517-.828-4.447-2.484-5.789-1.656-1.34-4.058-2.012-7.204-2.012h-8.446V84.7h8.446c3.146 0 5.548-.679 7.204-2.037 1.656-1.358 2.484-3.296 2.484-5.813z"/></g><g><path fill="#ef3046" d="M72.35 38.567a19.4 19.4 0 0 0-1.75.048c-2.113.154-4.535.604-6.344 1.766 4.727 4.697 14.92 16.167 15.566 16.869 2.724 2.74 3.787 6.493 1.32 9.49-1.909 2.326-5.483 3.437-8.33 2.319-1.569-.617-2.809-1.843-4-3.036-3.349-3.355-6.65-6.77-10.057-10.064 3.35 3.585 3.271 9.373-.195 12.856l-.05.034c-3.58 3.597-9.458 3.597-13.038 0l-2.448-2.447-.373.373 15.315 14.548 6.908 6.562c2.004 1.904 4.114 4.469 6.58 5.724 4.498 2.289 8.825-3.91 11.446-6.721 2.1-2.251 4.085-4.614 5.887-7.113 1.77-2.45 3.668-4.737 4.562-7.667 2.176-7.134 1.71-13.873-1.824-20.486C88.61 46.164 83.87 41.44 77.895 39.5a19.044 19.044 0 0 0-5.546-.933z"/></g><g><path fill="#3c4b94" d="M41.342 14.895c0 7.718-6.256 13.974-13.974 13.974s-13.975-6.256-13.975-13.974S19.65.92 27.368.92s13.974 6.256 13.974 13.974z"/></g><g><path fill="#ef3046" d="M83.372 14.895c0 6.307-5.112 11.419-11.42 11.419-6.306 0-11.418-5.112-11.418-11.42 0-6.306 5.112-11.418 11.419-11.418s11.419 5.112 11.419 11.419z"/></g><g><path fill="#3c4b94" d="M58.935 56.019L46.668 43.752c-2.404-2.403-4.543-5.116-7.3-7.141-2.824-2.074-6.077-2.636-9.524-2.78-6.97-.288-14.078 1.898-19.512 6.312-.27.22-.538.446-.8.677C4.46 45.287 1.202 51.738.504 58.452c-.7 6.735 1.924 12.31 5.754 17.702 4.891 6.885 11.08 12.868 17.49 18.33a6.9 6.9 0 0 0 8.942 0 140.539 140.539 0 0 0 4.97-4.438c2.072-1.92 2.106-5.173.118-7.161L22 67.105c-2.74-2.74-3.118-7.16-.668-10.158 2.827-3.444 7.984-3.633 11.051-.55l2.182 2.074 10.322 10.638c3.581 3.597 10.417 3.597 13.998 0l.051-.035c3.581-3.598 3.581-9.474 0-13.055z"/></g></g></g></svg>