<svg width="27" height="30" viewBox="0 0 27 30" fill="none" xmlns="http://www.w3.org/2000/svg">
<path d="M8.04183 22.0835C8.41755 22.0835 8.77789 21.9342 9.04356 21.6686C9.30924 21.4029 9.4585 21.0426 9.4585 20.6668C9.46545 20.5725 9.46545 20.4778 9.4585 20.3835C9.44299 20.2947 9.41434 20.2088 9.3735 20.1285C9.34249 20.0382 9.29961 19.9525 9.246 19.8735L9.076 19.661C8.94127 19.532 8.78239 19.4309 8.6085 19.3635C8.34367 19.2388 8.04673 19.1992 7.7585 19.2502L7.5035 19.3352L7.2485 19.4627C7.17428 19.515 7.10332 19.5717 7.036 19.6327L6.866 19.8452C6.81238 19.9241 6.7695 20.0099 6.7385 20.1002C6.69765 20.1805 6.669 20.2664 6.6535 20.3552C6.64654 20.4495 6.64654 20.5442 6.6535 20.6385C6.6535 21.0142 6.80275 21.3746 7.06843 21.6402C7.3341 21.9059 7.69444 22.0552 8.07016 22.0552L8.04183 22.0835ZM19.3752 22.0835C19.7509 22.0835 20.1112 21.9342 20.3769 21.6686C20.6426 21.4029 20.7918 21.0426 20.7918 20.6668C20.7988 20.5725 20.7988 20.4778 20.7918 20.3835C20.7763 20.2947 20.7477 20.2088 20.7068 20.1285C20.6758 20.0382 20.6329 19.9525 20.5793 19.8735L20.4093 19.661C20.2716 19.5359 20.1135 19.4352 19.9418 19.3635C19.5969 19.2218 19.2101 19.2218 18.8652 19.3635C18.6935 19.4352 18.5354 19.5359 18.3977 19.661L18.2277 19.8735C18.174 19.9525 18.1312 20.0382 18.1002 20.1285C18.0593 20.2088 18.0307 20.2947 18.0152 20.3835C18.0082 20.4778 18.0082 20.5725 18.0152 20.6668C18.0167 21.0385 18.1643 21.3946 18.426 21.6585C18.6771 21.9154 19.0163 22.0673 19.3752 22.0835ZM15.1252 5.0835H12.2918C11.9161 5.0835 11.5558 5.23275 11.2901 5.49843C11.0244 5.76411 10.8752 6.12444 10.8752 6.50016C10.8752 6.87589 11.0244 7.23622 11.2901 7.5019C11.5558 7.76757 11.9161 7.91683 12.2918 7.91683H15.1252C15.5009 7.91683 15.8612 7.76757 16.1269 7.5019C16.3926 7.23622 16.5418 6.87589 16.5418 6.50016C16.5418 6.12444 16.3926 5.76411 16.1269 5.49843C15.8612 5.23275 15.5009 5.0835 15.1252 5.0835ZM22.2085 0.833496H5.2085C4.08133 0.833496 3.00032 1.28126 2.20329 2.07829C1.40626 2.87532 0.958496 3.95633 0.958496 5.0835V22.0835C0.96096 22.9603 1.23457 23.8149 1.74183 24.5302C2.24908 25.2454 2.96513 25.7862 3.79183 26.0785V27.7502C3.79183 28.1259 3.94109 28.4862 4.20676 28.7519C4.47244 29.0176 4.83277 29.1668 5.2085 29.1668C5.58422 29.1668 5.94455 29.0176 6.21023 28.7519C6.47591 28.4862 6.62516 28.1259 6.62516 27.7502V26.3335H20.7918V27.7502C20.7918 28.1259 20.9411 28.4862 21.2068 28.7519C21.4724 29.0176 21.8328 29.1668 22.2085 29.1668C22.5842 29.1668 22.9446 29.0176 23.2102 28.7519C23.4759 28.4862 23.6252 28.1259 23.6252 27.7502V26.0785C24.4519 25.7862 25.1679 25.2454 25.6752 24.5302C26.1824 23.8149 26.456 22.9603 26.4585 22.0835V5.0835C26.4585 3.95633 26.0107 2.87532 25.2137 2.07829C24.4167 1.28126 23.3357 0.833496 22.2085 0.833496ZM23.6252 22.0835C23.6252 22.4592 23.4759 22.8196 23.2102 23.0852C22.9446 23.3509 22.5842 23.5002 22.2085 23.5002H5.2085C4.83277 23.5002 4.47244 23.3509 4.20676 23.0852C3.94109 22.8196 3.79183 22.4592 3.79183 22.0835V17.8335H23.6252V22.0835ZM23.6252 15.0002H3.79183V5.0835C3.79183 4.70777 3.94109 4.34744 4.20676 4.08176C4.47244 3.81609 4.83277 3.66683 5.2085 3.66683H22.2085C22.5842 3.66683 22.9446 3.81609 23.2102 4.08176C23.4759 4.34744 23.6252 4.70777 23.6252 5.0835V15.0002Z" fill="white"/>
</svg>
