<svg width="60" height="60" viewBox="0 0 60 60" fill="none" xmlns="http://www.w3.org/2000/svg">
<g id="Iconly/Bold/Calendar">
<g id="Calendar">
<path id="Calendar_2" fill-rule="evenodd" clip-rule="evenodd" d="M41.0272 6.92154L41.0297 8.7956C47.9163 9.33533 52.4654 14.028 52.4728 21.2244L52.5 42.2888C52.5098 50.1349 47.5806 54.9625 39.6795 54.975L20.3797 55C12.528 55.01 7.53704 50.0674 7.52717 42.1989L7.50002 21.3818C7.49014 14.1379 11.8788 9.45777 18.7654 8.82559L18.763 6.95153C18.7605 5.85208 19.575 5.02499 20.6611 5.02499C21.7472 5.02249 22.5617 5.84708 22.5642 6.94653L22.5666 8.69565L37.2285 8.67566L37.226 6.92654C37.2235 5.82709 38.0381 5.0025 39.1241 5.00001C40.1855 4.99751 41.0247 5.82209 41.0272 6.92154ZM11.3037 22.1536L48.6741 22.1037V21.2291C48.5679 15.8568 45.8725 13.0382 41.0346 12.6184L41.0371 14.5424C41.0371 15.6169 40.2003 16.469 39.139 16.469C38.0529 16.4715 37.2359 15.6219 37.2359 14.5474L37.2334 12.5235L22.5716 12.5434L22.5741 14.5649C22.5741 15.6419 21.762 16.4915 20.6759 16.4915C19.5899 16.494 18.7728 15.6469 18.7728 14.5699L18.7704 12.6459C13.9572 13.1281 11.2938 15.9567 11.3012 21.3765L11.3037 22.1536ZM38.0998 33.5103V33.5378C38.1245 34.6873 39.0624 35.5593 40.2003 35.5343C41.3111 35.5068 42.1972 34.5548 42.1725 33.4054C42.1207 32.3059 41.2296 31.4089 40.1213 31.4114C38.9859 31.4364 38.0973 32.3609 38.0998 33.5103ZM40.1386 44.7301C39.0032 44.7051 38.0874 43.7581 38.085 42.6087C38.0603 41.4592 38.9711 40.5072 40.1065 40.4797H40.1312C41.2913 40.4797 42.2317 41.4268 42.2317 42.6012C42.2342 43.7756 41.2963 44.7276 40.1386 44.7301ZM27.9303 33.5505C27.9797 34.6999 28.9201 35.597 30.0555 35.547C31.1663 35.4945 32.0524 34.545 32.003 33.3956C31.9759 32.2711 31.0626 31.3966 29.9519 31.3991C28.8164 31.449 27.9278 32.4011 27.9303 33.5505ZM30.0654 44.6171C28.93 44.6671 27.992 43.7701 27.9402 42.6206C27.9402 41.4712 28.8263 40.5217 29.9617 40.4692C31.0725 40.4667 31.9882 41.3413 32.0129 42.4632C32.0647 43.6151 31.1761 44.5647 30.0654 44.6171ZM17.7608 33.6376C17.8102 34.787 18.7506 35.6865 19.8861 35.6341C20.9968 35.5841 21.8829 34.6321 21.8311 33.4826C21.8064 32.3582 20.8931 31.4836 19.7799 31.4861C18.6445 31.5361 17.7584 32.4881 17.7608 33.6376ZM19.8959 44.6301C18.7605 44.6826 17.8225 43.783 17.7707 42.6336C17.7682 41.4842 18.6568 40.5322 19.7923 40.4822C20.903 40.4797 21.8187 41.3542 21.8434 42.4787C21.8953 43.6281 21.0091 44.5801 19.8959 44.6301Z" fill="white"/>
</g>
</g>
</svg>
