<svg width="50" height="50" viewBox="0 0 50 50" fill="none" xmlns="http://www.w3.org/2000/svg">
<g clip-path="url(#clip0)">
<path d="M41.0723 29.6881H38.2815C37.8507 29.6881 37.5002 29.3376 37.5002 28.9068C37.5002 27.8844 37.5002 3.68992 37.5002 2.3438C37.5002 1.05139 36.4487 0 35.1564 0H14.8435C13.5511 0 12.4997 1.05139 12.4997 2.3438V28.9068C12.4997 29.3376 12.1492 29.6881 11.7185 29.6881H8.92769C7.25031 29.6881 6.41573 31.7005 7.55559 32.8946L23.1141 49.194C24.1395 50.2684 25.86 50.2689 26.8858 49.194L42.4443 32.8946C43.5841 31.7004 42.7495 29.6881 41.0723 29.6881V29.6881ZM14.0623 6.25012H35.9377V7.81265H14.0623V6.25012ZM14.8435 1.56253H35.1564C35.5872 1.56253 35.9377 1.91303 35.9377 2.3438V4.68759H14.0623V2.3438C14.0623 1.91303 14.4128 1.56253 14.8435 1.56253ZM41.3141 31.8158L25.7555 48.1152C25.3447 48.5456 24.6553 48.5458 24.2443 48.1152L8.68589 31.8158C8.48325 31.6036 8.6355 31.2506 8.92769 31.2506H11.7185C13.0109 31.2506 14.0623 30.1992 14.0623 28.9068V9.37518H35.9377V28.9068C35.9377 30.1992 36.9892 31.2506 38.2815 31.2506H41.0723C41.365 31.2506 41.5162 31.6041 41.3141 31.8158V31.8158Z" fill="white"/>
<path d="M26.6667 25.1667H23.3333C22.8913 25.1667 22.4674 24.9912 22.1548 24.6786C21.8423 24.366 21.6667 23.9421 21.6667 23.5001C21.6667 23.0581 21.8423 22.6341 22.1548 22.3216C22.4674 22.009 22.8913 21.8334 23.3333 21.8334H27.5C27.721 21.8334 27.933 21.9212 28.0893 22.0775C28.2455 22.2338 28.3333 22.4457 28.3333 22.6667C28.3333 22.8878 28.4211 23.0997 28.5774 23.256C28.7337 23.4123 28.9457 23.5001 29.1667 23.5001C29.3877 23.5001 29.5996 23.4123 29.7559 23.256C29.9122 23.0997 30 22.8878 30 22.6667C30 22.0037 29.7366 21.3678 29.2678 20.899C28.7989 20.4301 28.163 20.1667 27.5 20.1667H25.8333V18.5001C25.8333 18.2791 25.7455 18.0671 25.5893 17.9108C25.433 17.7545 25.221 17.6667 25 17.6667C24.779 17.6667 24.567 17.7545 24.4107 17.9108C24.2545 18.0671 24.1667 18.2791 24.1667 18.5001V20.1667H23.3333C22.4493 20.1667 21.6014 20.5179 20.9763 21.1431C20.3512 21.7682 20 22.616 20 23.5001C20 24.3841 20.3512 25.232 20.9763 25.8571C21.6014 26.4822 22.4493 26.8334 23.3333 26.8334H26.6667C27.1087 26.8334 27.5326 27.009 27.8452 27.3216C28.1577 27.6341 28.3333 28.0581 28.3333 28.5001C28.3333 28.9421 28.1577 29.366 27.8452 29.6786C27.5326 29.9912 27.1087 30.1667 26.6667 30.1667H22.5C22.279 30.1667 22.067 30.079 21.9107 29.9227C21.7545 29.7664 21.6667 29.5544 21.6667 29.3334C21.6667 29.1124 21.5789 28.9004 21.4226 28.7442C21.2663 28.5879 21.0543 28.5001 20.8333 28.5001C20.6123 28.5001 20.4004 28.5879 20.2441 28.7442C20.0878 28.9004 20 29.1124 20 29.3334C20 29.9965 20.2634 30.6323 20.7322 31.1012C21.2011 31.57 21.837 31.8334 22.5 31.8334H24.1667V33.5001C24.1667 33.7211 24.2545 33.9331 24.4107 34.0893C24.567 34.2456 24.779 34.3334 25 34.3334C25.221 34.3334 25.433 34.2456 25.5893 34.0893C25.7455 33.9331 25.8333 33.7211 25.8333 33.5001V31.8334H26.6667C27.5507 31.8334 28.3986 31.4822 29.0237 30.8571C29.6488 30.232 30 29.3841 30 28.5001C30 27.616 29.6488 26.7682 29.0237 26.1431C28.3986 25.5179 27.5507 25.1667 26.6667 25.1667V25.1667Z" fill="white"/>
</g>
<defs>
<clipPath id="clip0">
<rect width="50" height="50" fill="white"/>
</clipPath>
</defs>
</svg>
