<svg width="60" height="60" viewBox="0 0 60 60" fill="none" xmlns="http://www.w3.org/2000/svg">
<g clip-path="url(#clip0)">
<path d="M29.9998 0C23.5347 0 18.2764 5.2598 18.2764 11.7249V17.7992C18.2764 24.2648 23.5347 29.5246 29.9998 29.5246C36.4654 29.5246 41.7232 24.2648 41.7232 17.7992V11.7249C41.7234 5.2598 36.4654 0 29.9998 0Z" fill="white"/>
<path d="M55.8543 44.8033C52.1003 38.406 46.0998 33.6631 38.9584 31.4484C38.7928 31.397 38.6138 31.4407 38.4904 31.5626C35.1684 34.8381 31.0404 37.3936 30.0084 38.0109C28.9068 37.3068 24.2667 34.2823 21.5082 31.5626C21.3853 31.4407 21.2048 31.397 21.0402 31.4484C13.8978 33.6636 7.89789 38.4064 4.14528 44.8038C4.05936 44.9502 4.05936 45.1321 4.14528 45.2785C9.4742 54.3591 19.3808 60 29.9993 60C40.6183 60 50.5254 54.3591 55.8543 45.2785C55.9407 45.1317 55.9407 44.9497 55.8543 44.8033ZM45.9443 48.3006C45.9443 48.5593 45.6981 48.7571 45.4398 48.7571H42.2647C42.0059 48.7571 41.7237 48.9793 41.7237 49.2385V52.5222C41.7237 52.7804 41.5855 52.9777 41.3267 52.9777H38.4751C38.2164 52.9777 37.9725 52.7804 37.9725 52.5222V49.2385C37.9716 48.9798 37.7949 48.7571 37.5362 48.7571H34.2242C33.9655 48.7571 33.7514 48.5588 33.7514 48.3006V45.4734C33.7514 45.2147 33.9655 45.0059 34.2242 45.0059H37.5362C37.7949 45.0059 37.9716 44.7947 37.9716 44.5355V41.248C37.9716 40.9893 38.2154 40.7853 38.4741 40.7853H41.2951C41.5533 40.7853 41.7232 40.9893 41.7232 41.248V44.5451C41.7232 44.8043 41.9738 45.0054 42.233 45.0054H45.4398C45.6981 45.0054 45.9443 45.2243 45.9443 45.483V48.3006Z" fill="white"/>
</g>
<defs>
<clipPath id="clip0">
<rect width="60" height="60" fill="white"/>
</clipPath>
</defs>
</svg>
