<svg width="84" height="84" viewBox="0 0 84 84" fill="none" xmlns="http://www.w3.org/2000/svg">
<path opacity="0.1" d="M80 40C80 47.7024 74.0506 61 74.0506 61L84 84L61.0817 74C61.0817 74 47.7368 80 40 80C17.9086 80 0 62.0914 0 40C0 17.9086 17.9086 0 40 0C62.0914 0 80 17.9086 80 40Z" fill="#DC593A"/>
<path d="M54.7562 34.2283L51.0979 31.2375V25.6894C51.0979 24.5683 50.1858 23.6562 49.0644 23.6562H43.7109C43.3441 23.6562 43.0469 23.9535 43.0469 24.3203C43.0469 24.6871 43.3441 24.9844 43.7109 24.9844H49.0644C49.4533 24.9844 49.7697 25.3008 49.7697 25.6894V37.476L41.0547 44.1021L32.3396 37.476V31.5552C32.3396 31.5552 32.3396 31.555 32.3396 31.5547V25.6894C32.3396 25.3008 32.6561 24.9844 33.045 24.9844H38.3984C38.7652 24.9844 39.0625 24.6871 39.0625 24.3203C39.0625 23.9535 38.7652 23.6562 38.3984 23.6562H33.045C31.9236 23.6562 31.0115 24.5683 31.0115 25.6894V31.2375L27.3532 34.2283C27.1989 34.3544 27.1094 34.5432 27.1094 34.7425V42.1149H24.1211C23.7543 42.1149 23.457 42.4121 23.457 42.7789C23.457 43.1454 23.7543 43.443 24.1211 43.443H27.1094V50.3106C27.1094 51.4317 28.0214 52.3438 29.1425 52.3438H52.9668C54.088 52.3438 55 51.4317 55 50.3106V34.7425C55 34.5432 54.9105 34.3544 54.7562 34.2283ZM53.6719 50.0086L45.8147 42.1514L53.6719 36.1777V50.0086ZM51.0979 32.9529L53.3245 34.7733L51.0979 36.4662V32.9529ZM41.0547 45.6004C41.1963 45.6004 41.338 45.5553 41.4568 45.465L44.7478 42.9628L52.8006 51.0156H29.3088L37.3616 42.9628L40.6529 45.465C40.7714 45.5553 40.9131 45.6004 41.0547 45.6004ZM28.4375 36.1777L36.2947 42.1514L28.4375 50.0086V36.1777ZM31.0115 36.4662L28.7848 34.7733L31.0115 32.9529V36.4662Z" fill="#DC593A"/>
<path d="M25.25 46.3647H21.6641C21.2973 46.3647 21 46.662 21 47.0288C21 47.3953 21.2973 47.6929 21.6641 47.6929H25.25C25.6168 47.6929 25.9141 47.3953 25.9141 47.0288C25.9141 46.662 25.6168 46.3647 25.25 46.3647Z" fill="#DC593A"/>
<path d="M41.0547 24.9844C41.2293 24.9844 41.4007 24.9133 41.5242 24.7898C41.6477 24.6664 41.7188 24.4949 41.7188 24.3203C41.7188 24.1457 41.6477 23.9743 41.5242 23.8508C41.4007 23.7273 41.2293 23.6562 41.0547 23.6562C40.8801 23.6562 40.7086 23.7273 40.5852 23.8508C40.4617 23.9743 40.3906 24.1457 40.3906 24.3203C40.3906 24.4949 40.4617 24.6664 40.5852 24.7898C40.7086 24.9133 40.8801 24.9844 41.0547 24.9844Z" fill="#DC593A"/>
<path d="M35.667 33.2847C35.667 36.2556 38.0838 38.6727 41.0547 38.6727C44.0256 38.6727 46.4424 36.2556 46.4424 33.2847C46.4424 30.3138 44.0256 27.897 41.0547 27.897C38.0838 27.897 35.667 30.3138 35.667 33.2847ZM45.1143 33.2847C45.1143 35.5233 43.2933 37.3446 41.0547 37.3446C38.8161 37.3446 36.9951 35.5233 36.9951 33.2847C36.9951 31.0461 38.8161 29.2251 41.0547 29.2251C43.2933 29.2251 45.1143 31.0463 45.1143 33.2847Z" fill="#DC593A"/>
<path d="M40.0203 32.6716C39.7609 32.4122 39.3407 32.4122 39.0813 32.6716C38.8219 32.9308 38.8219 33.3513 39.0813 33.6107L40.2535 34.7829C40.3832 34.9126 40.5531 34.9774 40.723 34.9774C40.8929 34.9774 41.0628 34.9126 41.1925 34.7829L43.2496 32.7259C43.5087 32.4667 43.5087 32.0462 43.2496 31.7868C42.9902 31.5274 42.5697 31.5274 42.3103 31.7868L40.723 33.3741L40.0203 32.6716Z" fill="#DC593A"/>
</svg>
